<svg width="350" height="30" viewBox="0 0 350 30" fill="none" xmlns="http://www.w3.org/2000/svg">
<ellipse opacity="0.5" cx="60.4785" cy="14.8" rx="14.8" ry="14.8344" transform="rotate(90 60.4785 14.8)" fill="url(#paint0_linear)"/>
<ellipse opacity="0.5" cx="14.8344" cy="14.8" rx="14.8344" ry="14.8" transform="rotate(180 14.8344 14.8)" fill="url(#paint1_linear)"/>
<ellipse opacity="0.5" cx="151.767" cy="14.8" rx="14.8344" ry="14.8" fill="url(#paint2_linear)"/>
<ellipse opacity="0.5" cx="106.123" cy="14.8" rx="14.8" ry="14.8344" transform="rotate(-90 106.123 14.8)" fill="url(#paint3_linear)"/>
<ellipse opacity="0.5" cx="243.055" cy="14.8" rx="14.8" ry="14.8344" transform="rotate(90 243.055 14.8)" fill="url(#paint4_linear)"/>
<ellipse opacity="0.5" cx="197.411" cy="14.8" rx="14.8344" ry="14.8" transform="rotate(180 197.411 14.8)" fill="url(#paint5_linear)"/>
<ellipse opacity="0.5" cx="334.344" cy="14.8" rx="14.8344" ry="14.8" fill="url(#paint6_linear)"/>
<ellipse opacity="0.5" cx="288.699" cy="14.8" rx="14.8" ry="14.8344" transform="rotate(-90 288.699 14.8)" fill="url(#paint7_linear)"/>
<defs>
<linearGradient id="paint0_linear" x1="45.7937" y1="0.196621" x2="45.7937" y2="29.6344" gradientUnits="userSpaceOnUse">
<stop stop-color="#0989B4" stop-opacity="0.01"/>
<stop offset="0.999399" stop-color="#53FFEE"/>
</linearGradient>
<linearGradient id="paint1_linear" x1="0.115493" y1="0.230447" x2="0.115493" y2="29.6" gradientUnits="userSpaceOnUse">
<stop stop-color="#0989B4" stop-opacity="0.01"/>
<stop offset="0.999399" stop-color="#53FFEE"/>
</linearGradient>
<linearGradient id="paint2_linear" x1="137.048" y1="0.230441" x2="137.048" y2="29.6" gradientUnits="userSpaceOnUse">
<stop stop-color="#0989B4" stop-opacity="0.01"/>
<stop offset="0.999399" stop-color="#53FFEE"/>
</linearGradient>
<linearGradient id="paint3_linear" x1="91.4379" y1="0.196627" x2="91.4379" y2="29.6344" gradientUnits="userSpaceOnUse">
<stop stop-color="#0989B4" stop-opacity="0.01"/>
<stop offset="0.999399" stop-color="#53FFEE"/>
</linearGradient>
<linearGradient id="paint4_linear" x1="228.37" y1="0.196621" x2="228.37" y2="29.6344" gradientUnits="userSpaceOnUse">
<stop stop-color="#0989B4" stop-opacity="0.01"/>
<stop offset="0.999399" stop-color="#53FFEE"/>
</linearGradient>
<linearGradient id="paint5_linear" x1="182.692" y1="0.230447" x2="182.692" y2="29.6" gradientUnits="userSpaceOnUse">
<stop stop-color="#0989B4" stop-opacity="0.01"/>
<stop offset="0.999399" stop-color="#53FFEE"/>
</linearGradient>
<linearGradient id="paint6_linear" x1="319.625" y1="0.230441" x2="319.625" y2="29.6" gradientUnits="userSpaceOnUse">
<stop stop-color="#0989B4" stop-opacity="0.01"/>
<stop offset="0.999399" stop-color="#53FFEE"/>
</linearGradient>
<linearGradient id="paint7_linear" x1="274.015" y1="0.196627" x2="274.015" y2="29.6344" gradientUnits="userSpaceOnUse">
<stop stop-color="#0989B4" stop-opacity="0.01"/>
<stop offset="0.999399" stop-color="#53FFEE"/>
</linearGradient>
</defs>
</svg>
