<svg width="372" height="55" viewBox="0 0 372 55" fill="none" xmlns="http://www.w3.org/2000/svg">
<ellipse opacity="0.5" cx="60.4785" cy="39.8" rx="14.8" ry="14.8344" transform="rotate(90 60.4785 39.8)" fill="url(#paint0_linear)"/>
<ellipse opacity="0.5" cx="14.8344" cy="39.8" rx="14.8344" ry="14.8" transform="rotate(180 14.8344 39.8)" fill="url(#paint1_linear)"/>
<ellipse opacity="0.5" cx="151.767" cy="39.8" rx="14.8344" ry="14.8" fill="url(#paint2_linear)"/>
<ellipse opacity="0.5" cx="106.123" cy="39.8" rx="14.8" ry="14.8344" transform="rotate(-90 106.123 39.8)" fill="url(#paint3_linear)"/>
<ellipse opacity="0.5" cx="243.055" cy="39.8" rx="14.8" ry="14.8344" transform="rotate(90 243.055 39.8)" fill="url(#paint4_linear)"/>
<ellipse opacity="0.5" cx="197.411" cy="39.8" rx="14.8344" ry="14.8" transform="rotate(180 197.411 39.8)" fill="url(#paint5_linear)"/>
<ellipse opacity="0.5" cx="334.344" cy="39.8" rx="14.8344" ry="14.8" fill="url(#paint6_linear)"/>
<ellipse opacity="0.5" cx="288.699" cy="39.8" rx="14.8" ry="14.8344" transform="rotate(-90 288.699 39.8)" fill="url(#paint7_linear)"/>
<ellipse opacity="0.5" cx="82.4785" cy="14.8" rx="14.8" ry="14.8344" transform="rotate(90 82.4785 14.8)" fill="url(#paint8_linear)"/>
<ellipse opacity="0.5" cx="36.8344" cy="14.8" rx="14.8344" ry="14.8" transform="rotate(180 36.8344 14.8)" fill="url(#paint9_linear)"/>
<ellipse opacity="0.5" cx="173.767" cy="14.8" rx="14.8344" ry="14.8" fill="url(#paint10_linear)"/>
<ellipse opacity="0.5" cx="128.123" cy="14.8" rx="14.8" ry="14.8344" transform="rotate(-90 128.123 14.8)" fill="url(#paint11_linear)"/>
<ellipse opacity="0.5" cx="265.055" cy="14.8" rx="14.8" ry="14.8344" transform="rotate(90 265.055 14.8)" fill="url(#paint12_linear)"/>
<ellipse opacity="0.5" cx="219.411" cy="14.8" rx="14.8344" ry="14.8" transform="rotate(180 219.411 14.8)" fill="url(#paint13_linear)"/>
<ellipse opacity="0.5" cx="356.344" cy="14.8" rx="14.8344" ry="14.8" fill="url(#paint14_linear)"/>
<ellipse opacity="0.5" cx="310.699" cy="14.8" rx="14.8" ry="14.8344" transform="rotate(-90 310.699 14.8)" fill="url(#paint15_linear)"/>
<defs>
<linearGradient id="paint0_linear" x1="45.7937" y1="25.1966" x2="45.7937" y2="54.6344" gradientUnits="userSpaceOnUse">
<stop stop-color="#0989B4" stop-opacity="0.01"/>
<stop offset="0.999399" stop-color="#53FFEE"/>
</linearGradient>
<linearGradient id="paint1_linear" x1="0.115493" y1="25.2304" x2="0.115493" y2="54.6" gradientUnits="userSpaceOnUse">
<stop stop-color="#0989B4" stop-opacity="0.01"/>
<stop offset="0.999399" stop-color="#53FFEE"/>
</linearGradient>
<linearGradient id="paint2_linear" x1="137.048" y1="25.2304" x2="137.048" y2="54.6" gradientUnits="userSpaceOnUse">
<stop stop-color="#0989B4" stop-opacity="0.01"/>
<stop offset="0.999399" stop-color="#53FFEE"/>
</linearGradient>
<linearGradient id="paint3_linear" x1="91.4379" y1="25.1966" x2="91.4379" y2="54.6344" gradientUnits="userSpaceOnUse">
<stop stop-color="#0989B4" stop-opacity="0.01"/>
<stop offset="0.999399" stop-color="#53FFEE"/>
</linearGradient>
<linearGradient id="paint4_linear" x1="228.37" y1="25.1966" x2="228.37" y2="54.6344" gradientUnits="userSpaceOnUse">
<stop stop-color="#0989B4" stop-opacity="0.01"/>
<stop offset="0.999399" stop-color="#53FFEE"/>
</linearGradient>
<linearGradient id="paint5_linear" x1="182.692" y1="25.2304" x2="182.692" y2="54.6" gradientUnits="userSpaceOnUse">
<stop stop-color="#0989B4" stop-opacity="0.01"/>
<stop offset="0.999399" stop-color="#53FFEE"/>
</linearGradient>
<linearGradient id="paint6_linear" x1="319.625" y1="25.2304" x2="319.625" y2="54.6" gradientUnits="userSpaceOnUse">
<stop stop-color="#0989B4" stop-opacity="0.01"/>
<stop offset="0.999399" stop-color="#53FFEE"/>
</linearGradient>
<linearGradient id="paint7_linear" x1="274.015" y1="25.1966" x2="274.015" y2="54.6344" gradientUnits="userSpaceOnUse">
<stop stop-color="#0989B4" stop-opacity="0.01"/>
<stop offset="0.999399" stop-color="#53FFEE"/>
</linearGradient>
<linearGradient id="paint8_linear" x1="67.7937" y1="0.196621" x2="67.7937" y2="29.6344" gradientUnits="userSpaceOnUse">
<stop stop-color="#0989B4" stop-opacity="0.01"/>
<stop offset="0.999399" stop-color="#53FFEE"/>
</linearGradient>
<linearGradient id="paint9_linear" x1="22.1155" y1="0.230447" x2="22.1155" y2="29.6" gradientUnits="userSpaceOnUse">
<stop stop-color="#0989B4" stop-opacity="0.01"/>
<stop offset="0.999399" stop-color="#53FFEE"/>
</linearGradient>
<linearGradient id="paint10_linear" x1="159.048" y1="0.230441" x2="159.048" y2="29.6" gradientUnits="userSpaceOnUse">
<stop stop-color="#0989B4" stop-opacity="0.01"/>
<stop offset="0.999399" stop-color="#53FFEE"/>
</linearGradient>
<linearGradient id="paint11_linear" x1="113.438" y1="0.196627" x2="113.438" y2="29.6344" gradientUnits="userSpaceOnUse">
<stop stop-color="#0989B4" stop-opacity="0.01"/>
<stop offset="0.999399" stop-color="#53FFEE"/>
</linearGradient>
<linearGradient id="paint12_linear" x1="250.37" y1="0.196621" x2="250.37" y2="29.6344" gradientUnits="userSpaceOnUse">
<stop stop-color="#0989B4" stop-opacity="0.01"/>
<stop offset="0.999399" stop-color="#53FFEE"/>
</linearGradient>
<linearGradient id="paint13_linear" x1="204.692" y1="0.230447" x2="204.692" y2="29.6" gradientUnits="userSpaceOnUse">
<stop stop-color="#0989B4" stop-opacity="0.01"/>
<stop offset="0.999399" stop-color="#53FFEE"/>
</linearGradient>
<linearGradient id="paint14_linear" x1="341.625" y1="0.230441" x2="341.625" y2="29.6" gradientUnits="userSpaceOnUse">
<stop stop-color="#0989B4" stop-opacity="0.01"/>
<stop offset="0.999399" stop-color="#53FFEE"/>
</linearGradient>
<linearGradient id="paint15_linear" x1="296.015" y1="0.196627" x2="296.015" y2="29.6344" gradientUnits="userSpaceOnUse">
<stop stop-color="#0989B4" stop-opacity="0.01"/>
<stop offset="0.999399" stop-color="#53FFEE"/>
</linearGradient>
</defs>
</svg>
